<svg width="25" height="25" viewBox="0 0 25 25" fill="none" xmlns="http://www.w3.org/2000/svg">
<g clip-path="url(#clip0_101_1688)">
<path d="M17.9269 9.37508L13.3644 2.54696C13.1665 2.24487 12.8332 2.10425 12.4998 2.10425C12.1665 2.10425 11.8332 2.25008 11.6353 2.54696L7.07275 9.37508H2.08317C1.51025 9.37508 1.0415 9.84383 1.0415 10.4167C1.0415 10.5157 1.05713 10.6095 1.07796 10.698L3.71859 20.3542C3.96338 21.2292 4.77067 21.8751 5.729 21.8751H19.2707C20.229 21.8751 21.0363 21.2292 21.2759 20.349L23.9165 10.6928C23.9425 10.6095 23.9582 10.5157 23.9582 10.4167C23.9582 9.84383 23.4894 9.37508 22.9165 9.37508H17.9269ZM9.37484 9.37508L12.4998 4.79175L15.6248 9.37508H9.37484ZM12.4998 17.7084C11.3488 17.7084 10.4165 16.7761 10.4165 15.6251C10.4165 14.474 11.3488 13.5417 12.4998 13.5417C13.6509 13.5417 14.5832 14.474 14.5832 15.6251C14.5832 16.7761 13.6509 17.7084 12.4998 17.7084Z" fill="black"/>
</g>
<defs>
<clipPath id="clip0_101_1688">
<rect width="25" height="25" fill="white"/>
</clipPath>
</defs>
</svg>
