<svg width="1920" height="1276" viewBox="0 0 1920 1276" fill="none" xmlns="http://www.w3.org/2000/svg">
<path d="M-155.015 948.215L-169.722 899.684L58.9295 830.392L73.6365 878.923L-11.5981 904.753L58.0645 1134.63L-0.118 1152.26L-69.7806 922.385L-155.015 948.215ZM180.955 1097.39L96.585 818.981L155.447 801.143L190.258 916.013L309.75 879.801L274.939 764.932L333.665 747.135L418.035 1025.54L359.308 1043.34L324.457 928.332L204.965 964.543L239.817 1079.55L180.955 1097.39ZM466.565 1010.83L382.196 732.428L569.794 675.577L584.501 724.108L455.765 763.121L475.869 829.46L594.952 793.372L609.659 841.903L490.576 877.99L510.721 944.465L640 905.288L654.707 953.819L466.565 1010.83ZM938.056 563.977L1022.43 842.383L971.584 857.791L797.359 719.269L795.32 719.887L848.422 895.114L789.56 912.952L705.19 634.546L756.848 618.892L930.079 757.566L932.526 756.824L879.466 581.733L938.056 563.977ZM1071.06 827.645L986.689 549.239L1174.29 492.389L1188.99 540.919L1060.26 579.932L1080.36 646.271L1199.45 610.183L1214.15 658.714L1095.07 694.802L1115.21 761.277L1244.49 722.099L1259.2 770.63L1071.06 827.645ZM1368.12 737.622L1204.09 483.357L1268.39 463.871L1373.1 643.349L1375.41 642.648L1367.63 433.798L1422.68 417.113L1532.14 595.598L1534.58 594.857L1521.92 387.04L1586.22 367.554L1590.93 670.101L1533.56 687.486L1425.38 521.528L1423.21 522.187L1425.49 720.237L1368.12 737.622ZM1765.19 313.32L1849.56 591.726L1790.69 609.564L1706.32 331.158L1765.19 313.32ZM1988.91 332.944C1984.5 322.307 1977.25 315.203 1967.16 311.63C1957.07 308.057 1944.96 308.413 1930.82 312.697C1921.22 315.609 1913.52 319.426 1907.73 324.15C1901.91 328.783 1897.94 333.991 1895.84 339.775C1893.82 345.531 1893.72 351.4 1895.53 357.381C1896.86 362.421 1899.22 366.455 1902.62 369.484C1906.1 372.486 1910.29 374.728 1915.19 376.211C1920.07 377.603 1925.48 378.486 1931.43 378.86C1937.35 379.142 1943.56 379.043 1950.04 378.563L1976.87 376.964C1989.84 376.003 2002.08 376.25 2013.61 377.705C2025.13 379.16 2035.61 382.07 2045.04 386.434C2054.48 390.797 2062.6 396.847 2069.39 404.583C2076.28 412.292 2081.53 421.933 2085.14 433.506C2090.21 450.571 2090.33 466.661 2085.52 481.777C2080.76 496.775 2071.36 510.161 2057.31 521.938C2043.33 533.596 2025.01 542.858 2002.36 549.724C1979.88 556.535 1959.26 559.023 1940.5 557.189C1921.83 555.328 1905.78 549.059 1892.35 538.385C1878.99 527.592 1869.05 512.25 1862.52 492.359L1919.48 475.098C1922.94 484.24 1927.98 491.224 1934.59 496.049C1941.26 500.756 1949.06 503.487 1958 504.242C1967 504.879 1976.57 503.66 1986.72 500.584C1996.69 497.563 2004.91 493.49 2011.37 488.365C2017.92 483.213 2022.45 477.436 2024.97 471.034C2027.48 464.633 2027.72 458.079 2025.69 451.372C2023.79 445.119 2020.34 440.426 2015.34 437.292C2010.42 434.131 2003.97 432.127 1996 431.278C1988.11 430.402 1978.73 430.279 1967.83 430.908L1935.21 432.482C1910.01 433.886 1888.77 430.575 1871.5 422.551C1854.22 414.527 1842.51 400.214 1836.37 379.615C1831.17 362.786 1831.2 346.699 1836.44 331.356C1841.78 315.985 1851.35 302.348 1865.16 290.445C1878.96 278.543 1896.02 269.515 1916.32 263.363C1936.98 257.102 1956.09 255.171 1973.64 257.571C1991.28 259.943 2006.31 266.124 2018.74 276.112C2031.16 286.1 2040.03 299.345 2045.32 315.847L1988.91 332.944ZM2148.83 501.032L2064.46 222.627L2123.32 204.789L2192.98 434.664L2312.34 398.494L2327.05 447.024L2148.83 501.032ZM2366.03 435.211L2281.66 156.805L2469.25 99.9549L2483.96 148.486L2355.23 187.498L2375.33 253.837L2494.41 217.749L2509.12 266.28L2390.04 302.368L2410.18 368.843L2539.46 329.665L2554.17 378.196L2366.03 435.211Z" fill="#F5F5F5"/>
</svg>
